<?xml version="1.0" encoding="utf-8"?>
<!-- Generator: Adobe Illustrator 19.0.1, SVG Export Plug-In . SVG Version: 6.00 Build 0)  -->
<svg version="1.1" id="Capa_1" xmlns="http://www.w3.org/2000/svg" xmlns:xlink="http://www.w3.org/1999/xlink" x="0px" y="0px"
	 viewBox="-11.5 73.1 140 140" style="enable-background:new -11.5 73.1 140 140;" xml:space="preserve">
<path d="M112.6,111.7c-5.6-9.6-13.2-17.2-22.8-22.8c-9.6-5.6-20.1-8.4-31.4-8.4c-11.4,0-21.8,2.8-31.4,8.4
	c-9.6,5.6-17.2,13.2-22.8,22.8c-5.6,9.6-8.4,20.1-8.4,31.4c0,11.4,2.8,21.8,8.4,31.4c5.6,9.6,13.2,17.2,22.8,22.8
	c9.6,5.6,20.1,8.4,31.4,8.4s21.8-2.8,31.4-8.4c9.6-5.6,17.2-13.2,22.8-22.8c5.6-9.6,8.4-20.1,8.4-31.4
	C121,131.7,118.2,121.3,112.6,111.7z M94.1,164c2.3,2.3,2.3,6.1,0,8.4l-6.3,6.3c-2.3,2.3-6.1,2.3-8.4,0l-20.9-20.9l-20.9,20.9
	c-2.3,2.3-6.1,2.3-8.4,0l-6.3-6.3c-2.3-2.3-2.3-6.1,0-8.4l20.9-20.9l-20.9-20.9c-2.3-2.3-2.3-6.1,0-8.4l6.3-6.3
	c2.3-2.3,6.1-2.3,8.4,0l20.9,20.9l20.9-20.9c2.3-2.3,6.1-2.3,8.4,0l6.3,6.3c2.3,2.3,2.3,6.1,0,8.4l-20.9,20.9L94.1,164z"/>
</svg>
