<?xml version="1.0" encoding="utf-8"?>
<!-- Generator: Adobe Illustrator 19.0.1, SVG Export Plug-In . SVG Version: 6.00 Build 0)  -->
<svg version="1.1" id="Capa_1" xmlns="http://www.w3.org/2000/svg" xmlns:xlink="http://www.w3.org/1999/xlink" x="0px" y="0px"
	 viewBox="-11.5 73.1 140 140" style="enable-background:new -11.5 73.1 140 140;" xml:space="preserve">
<style type="text/css">
	.st0{fill:#7D7D7D;}
</style>
<path class="st0" d="M112.6,111.7c-5.6-9.6-13.2-17.2-22.8-22.8c-9.6-5.6-20.1-8.4-31.4-8.4c-11.4,0-21.8,2.8-31.4,8.4
	c-9.6,5.6-17.2,13.2-22.8,22.8c-5.6,9.6-8.4,20.1-8.4,31.4c0,11.4,2.8,21.8,8.4,31.4c5.6,9.6,13.2,17.2,22.8,22.8
	c9.6,5.6,20.1,8.4,31.4,8.4s21.8-2.8,31.4-8.4c9.6-5.6,17.2-13.2,22.8-22.8c5.6-9.6,8.4-20.1,8.4-31.4
	C121,131.7,118.2,121.3,112.6,111.7z M58.5,188.9c-8.3,0-16-2-23-6.1s-12.6-9.7-16.7-16.7c-4.1-7-6.1-14.7-6.1-23c0-8.3,2-16,6.1-23
	c0.2-0.4,0.5-0.8,0.7-1.2l24.2,24.2l14.8,14.8L82.6,182c-0.4,0.2-0.8,0.5-1.2,0.7C74.4,186.8,66.8,188.9,58.5,188.9z M98.1,166.1
	c-0.2,0.4-0.5,0.8-0.7,1.2l-24.2-24.2l-14.8-14.8l-24.2-24.2c0.4-0.2,0.8-0.5,1.2-0.7c7-4.1,14.7-6.1,23-6.1c8.3,0,16,2,23,6.1
	c7,4.1,12.6,9.6,16.7,16.7c4.1,7,6.1,14.7,6.1,23C104.2,151.4,102.2,159,98.1,166.1z"/>
</svg>
