<?xml version="1.0" encoding="utf-8"?>
<!-- Generator: Adobe Illustrator 19.0.1, SVG Export Plug-In . SVG Version: 6.00 Build 0)  -->
<svg version="1.1" id="Capa_1" xmlns="http://www.w3.org/2000/svg" xmlns:xlink="http://www.w3.org/1999/xlink" x="0px" y="0px"
	 viewBox="-202 69.5 140 140" style="enable-background:new -202 69.5 140 140;" xml:space="preserve">
<path fill="#407740" d="M-77.8,108.1c-5.6-9.6-13.2-17.2-22.8-22.8c-9.6-5.6-20.1-8.4-31.4-8.4c-11.4,0-21.8,2.8-31.4,8.4
	c-9.6,5.6-17.2,13.2-22.8,22.8c-5.6,9.6-8.4,20.1-8.4,31.4c0,11.4,2.8,21.8,8.4,31.4c5.6,9.6,13.2,17.2,22.8,22.8
	c9.6,5.6,20.1,8.4,31.4,8.4s21.8-2.8,31.4-8.4c9.6-5.6,17.2-13.2,22.8-22.8c5.6-9.6,8.4-20.1,8.4-31.4
	C-69.4,128.1-72.2,117.7-77.8,108.1z M-91.4,130l-44.2,44.2c-1,1-2.3,1.5-3.7,1.5c-1.4,0-2.6-0.5-3.7-1.5l-29.5-29.5
	c-1-1-1.5-2.2-1.5-3.7c0-1.5,0.5-2.8,1.5-3.7l7.4-7.3c1-1,2.3-1.5,3.7-1.5c1.4,0,2.6,0.5,3.7,1.5l18.4,18.4l33.2-33.2
	c1-1,2.3-1.5,3.7-1.5c1.4,0,2.6,0.5,3.7,1.5l7.4,7.3c1,1,1.5,2.2,1.5,3.7C-90,127.8-90.4,129-91.4,130z"/>
</svg>
